<svg xmlns="http://www.w3.org/2000/svg" xmlns:xlink="http://www.w3.org/1999/xlink" width="1080" zoomAndPan="magnify" viewBox="0 0 810 809.999993" height="1080" preserveAspectRatio="xMidYMid meet" version="1.0"><defs><clipPath id="id1"><path d="M 24.300781 18.898438 L 790.800781 18.898438 L 790.800781 785.398438 L 24.300781 785.398438 Z M 24.300781 18.898438 " clip-rule="nonzero"/></clipPath></defs><g clip-path="url(#id1)"><path fill="#ffffff" d="M 790.800781 402.148438 C 790.800781 408.421875 790.644531 414.691406 790.339844 420.957031 C 790.03125 427.21875 789.570312 433.472656 788.953125 439.714844 C 788.339844 445.957031 787.570312 452.179688 786.652344 458.382812 C 785.730469 464.589844 784.660156 470.765625 783.4375 476.917969 C 782.210938 483.070312 780.839844 489.1875 779.3125 495.273438 C 777.789062 501.355469 776.117188 507.398438 774.296875 513.402344 C 772.476562 519.402344 770.507812 525.355469 768.398438 531.261719 C 766.285156 537.167969 764.027344 543.019531 761.625 548.8125 C 759.226562 554.609375 756.683594 560.339844 754.003906 566.011719 C 751.320312 571.679688 748.503906 577.28125 745.546875 582.8125 C 742.589844 588.34375 739.5 593.800781 736.273438 599.179688 C 733.050781 604.558594 729.695312 609.855469 726.210938 615.070312 C 722.726562 620.289062 719.117188 625.414062 715.378906 630.453125 C 711.644531 635.488281 707.785156 640.433594 703.804688 645.28125 C 699.828125 650.128906 695.730469 654.878906 691.519531 659.523438 C 687.308594 664.171875 682.984375 668.714844 678.546875 673.148438 C 674.113281 677.582031 669.570312 681.90625 664.925781 686.121094 C 660.277344 690.332031 655.53125 694.425781 650.679688 698.40625 C 645.832031 702.386719 640.890625 706.242188 635.851562 709.980469 C 630.8125 713.714844 625.6875 717.324219 620.472656 720.8125 C 615.257812 724.296875 609.960938 727.648438 604.578125 730.875 C 599.199219 734.097656 593.746094 737.191406 588.210938 740.144531 C 582.679688 743.101562 577.082031 745.921875 571.410156 748.605469 C 565.742188 751.285156 560.007812 753.828125 554.214844 756.226562 C 548.417969 758.628906 542.570312 760.882812 536.664062 762.996094 C 530.757812 765.109375 524.804688 767.078125 518.800781 768.898438 C 512.800781 770.71875 506.757812 772.390625 500.671875 773.914062 C 494.585938 775.4375 488.46875 776.8125 482.316406 778.035156 C 476.167969 779.257812 469.988281 780.332031 463.785156 781.25 C 457.582031 782.171875 451.355469 782.941406 445.113281 783.554688 C 438.875 784.167969 432.621094 784.628906 426.355469 784.9375 C 420.089844 785.246094 413.820312 785.398438 407.550781 785.398438 C 401.277344 785.398438 395.007812 785.246094 388.746094 784.9375 C 382.480469 784.628906 376.226562 784.167969 369.984375 783.554688 C 363.742188 782.941406 357.519531 782.171875 351.316406 781.25 C 345.109375 780.332031 338.933594 779.257812 332.78125 778.035156 C 326.628906 776.8125 320.511719 775.4375 314.429688 773.914062 C 308.34375 772.390625 302.300781 770.71875 296.296875 768.898438 C 290.296875 767.078125 284.34375 765.109375 278.4375 762.996094 C 272.53125 760.882812 266.679688 758.628906 260.886719 756.226562 C 255.09375 753.828125 249.359375 751.285156 243.691406 748.605469 C 238.019531 745.921875 232.417969 743.101562 226.886719 740.144531 C 221.355469 737.191406 215.898438 734.097656 210.519531 730.875 C 205.140625 727.648438 199.84375 724.296875 194.628906 720.8125 C 189.414062 717.324219 184.285156 713.714844 179.25 709.980469 C 174.210938 706.242188 169.265625 702.386719 164.417969 698.40625 C 159.570312 694.425781 154.824219 690.332031 150.175781 686.121094 C 145.527344 681.90625 140.988281 677.582031 136.550781 673.148438 C 132.117188 668.714844 127.792969 664.171875 123.582031 659.523438 C 119.367188 654.878906 115.273438 650.128906 111.292969 645.28125 C 107.316406 640.433594 103.457031 635.488281 99.722656 630.453125 C 95.984375 625.414062 92.375 620.289062 88.890625 615.070312 C 85.40625 609.855469 82.050781 604.558594 78.824219 599.179688 C 75.601562 593.800781 72.511719 588.34375 69.554688 582.8125 C 66.597656 577.28125 63.777344 571.679688 61.097656 566.011719 C 58.414062 560.339844 55.875 554.609375 53.472656 548.8125 C 51.074219 543.019531 48.816406 537.167969 46.703125 531.261719 C 44.589844 525.355469 42.625 519.402344 40.800781 513.402344 C 38.980469 507.398438 37.308594 501.355469 35.785156 495.273438 C 34.261719 489.1875 32.886719 483.070312 31.664062 476.917969 C 30.441406 470.765625 29.367188 464.589844 28.449219 458.382812 C 27.527344 452.179688 26.761719 445.957031 26.144531 439.714844 C 25.53125 433.472656 25.070312 427.21875 24.761719 420.957031 C 24.453125 414.691406 24.300781 408.421875 24.300781 402.148438 C 24.300781 395.878906 24.453125 389.609375 24.761719 383.34375 C 25.070312 377.082031 25.53125 370.828125 26.144531 364.585938 C 26.761719 358.34375 27.527344 352.121094 28.449219 345.914062 C 29.367188 339.710938 30.441406 333.535156 31.664062 327.382812 C 32.886719 321.230469 34.261719 315.113281 35.785156 309.027344 C 37.308594 302.945312 38.980469 296.902344 40.800781 290.898438 C 42.625 284.894531 44.589844 278.941406 46.703125 273.035156 C 48.816406 267.132812 51.074219 261.28125 53.472656 255.488281 C 55.875 249.691406 58.414062 243.960938 61.097656 238.289062 C 63.777344 232.621094 66.597656 227.019531 69.554688 221.488281 C 72.511719 215.957031 75.601562 210.5 78.824219 205.121094 C 82.050781 199.742188 85.40625 194.441406 88.890625 189.226562 C 92.375 184.011719 95.984375 178.886719 99.722656 173.847656 C 103.457031 168.808594 107.316406 163.867188 111.292969 159.019531 C 115.273438 154.171875 119.367188 149.421875 123.582031 144.773438 C 127.792969 140.128906 132.117188 135.585938 136.550781 131.152344 C 140.988281 126.714844 145.527344 122.394531 150.175781 118.179688 C 154.824219 113.96875 159.570312 109.871094 164.417969 105.894531 C 169.265625 101.914062 174.210938 98.058594 179.25 94.320312 C 184.285156 90.585938 189.414062 86.972656 194.628906 83.488281 C 199.84375 80.003906 205.140625 76.648438 210.519531 73.425781 C 215.898438 70.199219 221.355469 67.109375 226.886719 64.152344 C 232.417969 61.195312 238.019531 58.378906 243.691406 55.695312 C 249.359375 53.015625 255.09375 50.472656 260.886719 48.074219 C 266.679688 45.671875 272.53125 43.417969 278.4375 41.304688 C 284.34375 39.191406 290.296875 37.222656 296.296875 35.402344 C 302.300781 33.582031 308.34375 31.910156 314.429688 30.386719 C 320.511719 28.863281 326.628906 27.488281 332.78125 26.265625 C 338.933594 25.039062 345.109375 23.96875 351.316406 23.046875 C 357.519531 22.128906 363.742188 21.359375 369.984375 20.746094 C 376.226562 20.128906 382.480469 19.667969 388.746094 19.363281 C 395.007812 19.054688 401.277344 18.898438 407.550781 18.898438 C 413.820312 18.898438 420.089844 19.054688 426.355469 19.363281 C 432.621094 19.667969 438.875 20.128906 445.113281 20.746094 C 451.355469 21.359375 457.582031 22.128906 463.785156 23.046875 C 469.988281 23.96875 476.167969 25.039062 482.316406 26.265625 C 488.46875 27.488281 494.585938 28.863281 500.671875 30.386719 C 506.757812 31.910156 512.800781 33.582031 518.800781 35.402344 C 524.804688 37.222656 530.757812 39.191406 536.664062 41.304688 C 542.570312 43.417969 548.417969 45.671875 554.214844 48.074219 C 560.007812 50.472656 565.742188 53.015625 571.410156 55.695312 C 577.082031 58.378906 582.679688 61.195312 588.210938 64.152344 C 593.746094 67.109375 599.199219 70.199219 604.578125 73.425781 C 609.960938 76.648438 615.257812 80.003906 620.472656 83.488281 C 625.6875 86.972656 630.8125 90.585938 635.851562 94.320312 C 640.890625 98.058594 645.832031 101.914062 650.679688 105.894531 C 655.53125 109.871094 660.277344 113.96875 664.925781 118.179688 C 669.570312 122.394531 674.113281 126.714844 678.546875 131.152344 C 682.984375 135.585938 687.308594 140.128906 691.519531 144.773438 C 695.730469 149.421875 699.828125 154.171875 703.804688 159.019531 C 707.785156 163.867188 711.644531 168.808594 715.378906 173.847656 C 719.117188 178.886719 722.726562 184.011719 726.210938 189.226562 C 729.695312 194.441406 733.050781 199.742188 736.273438 205.121094 C 739.5 210.5 742.589844 215.957031 745.546875 221.488281 C 748.503906 227.019531 751.320312 232.621094 754.003906 238.289062 C 756.683594 243.960938 759.226562 249.691406 761.625 255.488281 C 764.027344 261.28125 766.285156 267.132812 768.398438 273.035156 C 770.507812 278.941406 772.476562 284.894531 774.296875 290.898438 C 776.117188 296.902344 777.789062 302.945312 779.3125 309.027344 C 780.839844 315.113281 782.210938 321.230469 783.4375 327.382812 C 784.660156 333.535156 785.730469 339.710938 786.652344 345.914062 C 787.570312 352.121094 788.339844 358.34375 788.953125 364.585938 C 789.570312 370.828125 790.03125 377.082031 790.339844 383.34375 C 790.644531 389.609375 790.800781 395.878906 790.800781 402.148438 Z M 790.800781 402.148438 " fill-opacity="1" fill-rule="nonzero"/></g><path fill="#b270a2" d="M 312.503906 666.4375 L 103.503906 457.453125 L 186.773438 374.171875 L 312.503906 499.878906 L 628.269531 184.082031 L 711.574219 267.34375 Z M 312.503906 666.4375 " fill-opacity="1" fill-rule="nonzero"/></svg>