<svg xmlns="http://www.w3.org/2000/svg" xmlns:xlink="http://www.w3.org/1999/xlink" width="1080" zoomAndPan="magnify" viewBox="0 0 810 809.999993" height="1080" preserveAspectRatio="xMidYMid meet" version="1.0"><defs><clipPath id="id1"><path d="M 20.25 27 L 784.5 27 L 784.5 791.25 L 20.25 791.25 Z M 20.25 27 " clip-rule="nonzero"/></clipPath><clipPath id="id2"><path d="M 180.226562 182 L 627 182 L 627 629.476562 L 180.226562 629.476562 Z M 180.226562 182 " clip-rule="nonzero"/></clipPath></defs><g clip-path="url(#id1)"><path fill="#ffffff" d="M 402.375 27 C 191.332031 27 20.25 198.082031 20.25 409.125 C 20.25 620.167969 191.332031 791.25 402.375 791.25 C 613.417969 791.25 784.5 620.167969 784.5 409.125 C 784.5 198.082031 613.417969 27 402.375 27 " fill-opacity="1" fill-rule="nonzero"/></g><g clip-path="url(#id2)"><path fill="#b270a2" d="M 180.226562 536.398438 L 180.226562 629.476562 L 273.300781 629.476562 L 547.941406 354.835938 L 454.863281 261.761719 Z M 619.671875 283.105469 C 629.351562 273.425781 629.351562 257.664062 619.671875 247.984375 L 561.714844 190.027344 C 552.035156 180.347656 536.273438 180.347656 526.59375 190.027344 L 481.171875 235.449219 L 574.25 328.527344 Z M 619.671875 283.105469 " fill-opacity="1" fill-rule="nonzero"/></g></svg>