<svg xmlns="http://www.w3.org/2000/svg" xmlns:xlink="http://www.w3.org/1999/xlink" width="1080" zoomAndPan="magnify" viewBox="0 0 810 809.999993" height="1080" preserveAspectRatio="xMidYMid meet" version="1.0"><defs><g/></defs><path fill="#7a4495" d="M 405 0 C 181.324219 0 0 181.324219 0 405 C 0 628.675781 181.324219 810 405 810 C 628.675781 810 810 628.675781 810 405 C 810 181.324219 628.675781 0 405 0 " fill-opacity="1" fill-rule="nonzero"/><g fill="#ffffff" fill-opacity="1"><g transform="translate(204.591701, 554.216133)"><g><path d="M 371.515625 -273.9375 C 371.515625 -249.675781 362.953125 -228.769531 345.828125 -211.21875 C 328.710938 -193.675781 303.75 -181.050781 270.9375 -173.34375 C 288.625 -168.488281 302.03125 -160.566406 311.15625 -149.578125 C 320.289062 -138.597656 324.859375 -125.976562 324.859375 -111.71875 C 324.859375 -89.175781 317.796875 -69.628906 303.671875 -53.078125 C 289.546875 -36.523438 268.929688 -23.753906 241.828125 -14.765625 C 214.722656 -5.773438 182.050781 -1.28125 143.8125 -1.28125 C 129.539062 -1.28125 118.128906 -1.707031 109.578125 -2.5625 C 109.285156 5.425781 105.859375 11.414062 99.296875 15.40625 C 92.734375 19.40625 84.316406 21.40625 74.046875 21.40625 C 63.773438 21.40625 56.710938 19.117188 52.859375 14.546875 C 49.003906 9.984375 47.363281 3.28125 47.9375 -5.5625 C 50.507812 -45.507812 55.503906 -87.382812 62.921875 -131.1875 C 70.335938 -174.988281 79.753906 -217.289062 91.171875 -258.09375 C 93.160156 -265.226562 97.148438 -270.222656 103.140625 -273.078125 C 109.140625 -275.929688 116.988281 -277.359375 126.6875 -277.359375 C 144.09375 -277.359375 152.796875 -272.503906 152.796875 -262.796875 C 152.796875 -258.804688 151.941406 -254.242188 150.234375 -249.109375 C 142.816406 -226.847656 135.394531 -196.671875 127.96875 -158.578125 C 120.550781 -120.484375 115.273438 -84.175781 112.140625 -49.65625 C 125.835938 -48.507812 136.96875 -47.9375 145.53125 -47.9375 C 185.476562 -47.9375 214.796875 -53.710938 233.484375 -65.265625 C 252.171875 -76.828125 261.515625 -91.597656 261.515625 -109.578125 C 261.515625 -122.128906 256.164062 -132.679688 245.46875 -141.234375 C 234.769531 -149.796875 216.863281 -154.507812 191.75 -155.375 C 186.039062 -155.65625 182.046875 -157.078125 179.765625 -159.640625 C 177.484375 -162.210938 176.34375 -166.351562 176.34375 -172.0625 C 176.34375 -180.332031 178.050781 -187.035156 181.46875 -192.171875 C 184.894531 -197.316406 191.175781 -200.03125 200.3125 -200.3125 C 220.570312 -200.882812 238.90625 -203.878906 255.3125 -209.296875 C 271.71875 -214.722656 284.628906 -222.359375 294.046875 -232.203125 C 303.460938 -242.046875 308.171875 -253.53125 308.171875 -266.65625 C 308.171875 -283.207031 300.035156 -296.257812 283.765625 -305.8125 C 267.503906 -315.375 242.539062 -320.15625 208.875 -320.15625 C 178.34375 -320.15625 148.804688 -316.226562 120.265625 -308.375 C 91.734375 -300.53125 67.484375 -290.617188 47.515625 -278.640625 C 38.378906 -273.210938 30.671875 -270.5 24.390625 -270.5 C 19.253906 -270.5 15.332031 -272.28125 12.625 -275.84375 C 9.914062 -279.414062 8.5625 -283.914062 8.5625 -289.34375 C 8.5625 -296.46875 10.054688 -302.597656 13.046875 -307.734375 C 16.046875 -312.878906 23.253906 -318.734375 34.671875 -325.296875 C 58.640625 -338.992188 86.742188 -349.691406 118.984375 -357.390625 C 151.234375 -365.097656 184.191406 -368.953125 217.859375 -368.953125 C 269.503906 -368.953125 308.023438 -360.25 333.421875 -342.84375 C 358.816406 -325.4375 371.515625 -302.46875 371.515625 -273.9375 Z M 371.515625 -273.9375 "/></g></g></g></svg>