<svg xmlns="http://www.w3.org/2000/svg" xmlns:xlink="http://www.w3.org/1999/xlink" width="1080" zoomAndPan="magnify" viewBox="0 0 810 809.999993" height="1080" preserveAspectRatio="xMidYMid meet" version="1.0"><path fill="#ffffff" d="M 809.996094 405.003906 C 809.996094 628.675781 628.675781 809.996094 405.003906 809.996094 C 181.335938 809.996094 0.015625 628.675781 0.015625 405.003906 C 0.015625 181.332031 181.335938 0.015625 405.003906 0.015625 C 628.675781 0.015625 809.996094 181.332031 809.996094 405.003906 " fill-opacity="1" fill-rule="nonzero"/><path fill="#fce2db" d="M 548.867188 276.980469 C 548.867188 356.714844 484.222656 421.355469 404.488281 421.355469 C 324.75 421.355469 260.105469 356.714844 260.105469 276.980469 C 260.105469 197.238281 324.75 132.597656 404.488281 132.597656 C 484.222656 132.597656 548.867188 197.238281 548.867188 276.980469 " fill-opacity="1" fill-rule="nonzero"/><path fill="#fce2db" d="M 404.484375 790.769531 C 506.652344 790.769531 599.96875 752.921875 671.21875 690.5 C 649.101562 546.078125 583.976562 445.855469 404.484375 445.855469 C 230.035156 445.855469 162.511719 546.503906 138.789062 691.425781 C 209.90625 753.296875 302.816406 790.769531 404.484375 790.769531 " fill-opacity="1" fill-rule="nonzero"/></svg>