<svg xmlns="http://www.w3.org/2000/svg" xmlns:xlink="http://www.w3.org/1999/xlink" width="1080" zoomAndPan="magnify" viewBox="0 0 810 809.999993" height="1080" preserveAspectRatio="xMidYMid meet" version="1.0"><defs><clipPath id="id1"><path d="M 46 37.800781 L 771 37.800781 L 771 763 L 46 763 Z M 46 37.800781 " clip-rule="nonzero"/></clipPath></defs><g clip-path="url(#id1)"><path fill="#7a4495" d="M 514.464844 570.878906 L 693.019531 749.371094 C 710.699219 767.042969 739.40625 767.039062 757.085938 749.359375 C 774.757812 731.675781 774.753906 702.96875 757.074219 685.289062 L 578.640625 506.921875 C 614.535156 458.097656 635.753906 397.804688 635.753906 332.589844 C 635.753906 169.890625 503.664062 37.800781 340.960938 37.800781 C 178.261719 37.800781 46.171875 169.890625 46.171875 332.589844 C 46.171875 495.292969 178.261719 627.382812 340.960938 627.382812 C 405.800781 627.382812 465.773438 606.410156 514.464844 570.878906 Z M 340.960938 128.40625 C 453.65625 128.40625 545.152344 219.898438 545.152344 332.589844 C 545.152344 445.285156 453.65625 536.78125 340.960938 536.78125 C 228.269531 536.78125 136.777344 445.285156 136.777344 332.589844 C 136.777344 219.898438 228.269531 128.40625 340.960938 128.40625 Z M 340.960938 128.40625 " fill-opacity="1" fill-rule="evenodd"/></g></svg>