<svg xmlns="http://www.w3.org/2000/svg" xmlns:xlink="http://www.w3.org/1999/xlink" width="1080" zoomAndPan="magnify" viewBox="0 0 810 809.999993" height="1080" preserveAspectRatio="xMidYMid meet" version="1.0"><defs><clipPath id="id1"><path d="M 20.25 27 L 784.5 27 L 784.5 791.25 L 20.25 791.25 Z M 20.25 27 " clip-rule="nonzero"/></clipPath><clipPath id="id2"><path d="M 185.199219 160.9375 L 619.449219 160.9375 L 619.449219 284 L 185.199219 284 Z M 185.199219 160.9375 " clip-rule="nonzero"/></clipPath><clipPath id="id3"><path d="M 216 316 L 589 316 L 589 657.4375 L 216 657.4375 Z M 216 316 " clip-rule="nonzero"/></clipPath></defs><g clip-path="url(#id1)"><path fill="#ffffff" d="M 402.375 27 C 191.332031 27 20.25 198.082031 20.25 409.125 C 20.25 620.167969 191.332031 791.25 402.375 791.25 C 613.417969 791.25 784.5 620.167969 784.5 409.125 C 784.5 198.082031 613.417969 27 402.375 27 " fill-opacity="1" fill-rule="nonzero"/></g><g clip-path="url(#id2)"><path fill="#b270a2" d="M 603.941406 221.835938 L 495.378906 221.835938 L 495.378906 176.453125 C 495.378906 167.917969 488.402344 160.9375 479.871094 160.9375 L 324.78125 160.9375 C 316.25 160.9375 309.273438 167.917969 309.273438 176.453125 L 309.273438 221.835938 L 200.710938 221.835938 C 192.179688 221.835938 185.199219 228.816406 185.199219 237.351562 L 185.199219 268.382812 C 185.199219 276.917969 192.179688 283.898438 200.710938 283.898438 L 603.941406 283.898438 C 612.472656 283.898438 619.449219 276.917969 619.449219 268.382812 L 619.449219 237.351562 C 619.449219 228.816406 612.472656 221.835938 603.941406 221.835938 Z M 603.941406 221.835938 " fill-opacity="1" fill-rule="nonzero"/></g><g clip-path="url(#id3)"><path fill="#b270a2" d="M 253.441406 643.859375 C 254.214844 651.617188 260.808594 657.4375 268.949219 657.4375 L 536.089844 657.4375 C 543.84375 657.4375 550.4375 651.617188 551.597656 643.859375 L 588.820312 316.480469 L 216.21875 316.480469 Z M 464.363281 593.433594 L 491.503906 376.605469 C 492.664062 368.070312 500.417969 362.253906 508.949219 363.027344 C 517.480469 364.191406 523.296875 371.949219 522.519531 380.484375 L 495.378906 597.3125 C 494.214844 605.070312 487.625 610.890625 479.871094 610.890625 C 479.09375 610.890625 478.707031 610.890625 477.933594 610.890625 C 469.402344 609.726562 463.585938 601.96875 464.363281 593.433594 Z M 386.816406 378.542969 C 386.816406 370.011719 393.796875 363.027344 402.324219 363.027344 C 410.855469 363.027344 417.835938 370.011719 417.835938 378.542969 L 417.835938 595.375 C 417.835938 603.90625 410.855469 610.890625 402.324219 610.890625 C 393.796875 610.890625 386.816406 603.90625 386.816406 595.375 Z M 295.703125 363.027344 C 304.230469 361.863281 311.988281 368.070312 313.148438 376.605469 L 340.289062 593.433594 C 341.453125 601.96875 335.25 609.726562 326.71875 610.890625 C 325.945312 610.890625 325.558594 610.890625 324.78125 610.890625 C 317.027344 610.890625 310.433594 605.070312 309.273438 597.3125 L 282.132812 380.484375 C 281.355469 371.949219 287.171875 364.191406 295.703125 363.027344 Z M 295.703125 363.027344 " fill-opacity="1" fill-rule="nonzero"/></g></svg>