<svg xmlns="http://www.w3.org/2000/svg" xmlns:xlink="http://www.w3.org/1999/xlink" width="1080" zoomAndPan="magnify" viewBox="0 0 810 809.999993" height="1080" preserveAspectRatio="xMidYMid meet" version="1.0"><defs><filter x="0%" y="0%" width="100%" height="100%" id="id1"><feColorMatrix values="0 0 0 0 1 0 0 0 0 1 0 0 0 0 1 0 0 0 1 0" color-interpolation-filters="sRGB"/></filter><mask id="id2"><g filter="url(#id1)"><rect x="-81" width="972" fill="#000000" y="-80.999999" height="971.999992" fill-opacity="0.498"/></g></mask><clipPath id="id3"><path d="M 1.078125 0.261719 L 742.828125 0.261719 L 742.828125 593.511719 L 1.078125 593.511719 Z M 1.078125 0.261719 " clip-rule="nonzero"/></clipPath><clipPath id="id4"><rect x="0" width="744" y="0" height="595"/></clipPath></defs><g mask="url(#id2)"><g transform="matrix(1, 0, 0, 1, 33, 108)"><g clip-path="url(#id4)"><g clip-path="url(#id3)"><path fill="#000000" d="M 371.953125 0.265625 C 208.265625 0.265625 75.253906 133.246094 75.253906 296.886719 C 75.253906 460.53125 208.265625 593.511719 371.953125 593.511719 C 535.640625 593.511719 668.652344 460.53125 668.652344 296.886719 C 668.652344 133.246094 535.640625 0.265625 371.953125 0.265625 Z M 371.953125 29.929688 C 519.605469 29.929688 638.984375 149.273438 638.984375 296.886719 C 638.984375 444.5 519.605469 563.847656 371.953125 563.847656 C 224.300781 563.847656 104.925781 444.5 104.925781 296.886719 C 104.925781 149.273438 224.300781 29.929688 371.953125 29.929688 Z M 627.683594 34.273438 C 626.949219 34.261719 626.21875 34.304688 625.492188 34.402344 C 624.761719 34.5 624.046875 34.652344 623.339844 34.855469 C 622.636719 35.058594 621.949219 35.3125 621.28125 35.617188 C 620.613281 35.921875 619.972656 36.277344 619.355469 36.675781 C 618.742188 37.078125 618.160156 37.523438 617.609375 38.007812 C 617.0625 38.496094 616.550781 39.023438 616.078125 39.585938 C 615.609375 40.148438 615.179688 40.742188 614.796875 41.367188 C 614.414062 41.996094 614.078125 42.648438 613.792969 43.324219 C 613.507812 44 613.273438 44.691406 613.089844 45.402344 C 612.90625 46.113281 612.777344 46.835938 612.699219 47.566406 C 612.625 48.292969 612.601562 49.027344 612.632812 49.761719 C 612.667969 50.492188 612.753906 51.21875 612.894531 51.941406 C 613.035156 52.660156 613.226562 53.367188 613.472656 54.058594 C 613.71875 54.75 614.011719 55.421875 614.355469 56.070312 C 614.703125 56.71875 615.09375 57.335938 615.53125 57.925781 C 615.964844 58.515625 616.445312 59.070312 616.964844 59.589844 C 676.484375 121.015625 713.160156 204.570312 713.160156 296.886719 C 713.160156 375.097656 686.847656 446.984375 642.605469 504.523438 C 642.285156 504.90625 641.988281 505.304688 641.707031 505.714844 C 641.429688 506.128906 641.171875 506.554688 640.933594 506.992188 C 640.699219 507.429688 640.484375 507.878906 640.292969 508.339844 C 640.101562 508.800781 639.933594 509.269531 639.789062 509.746094 C 639.644531 510.222656 639.527344 510.707031 639.429688 511.195312 C 639.335938 511.683594 639.265625 512.175781 639.21875 512.671875 C 639.171875 513.167969 639.152344 513.664062 639.15625 514.164062 C 639.160156 514.660156 639.191406 515.160156 639.246094 515.652344 C 639.300781 516.148438 639.378906 516.640625 639.484375 517.128906 C 639.585938 517.613281 639.714844 518.09375 639.867188 518.570312 C 640.019531 519.042969 640.195312 519.507812 640.394531 519.964844 C 640.59375 520.421875 640.816406 520.867188 641.0625 521.300781 C 641.304688 521.738281 641.570312 522.15625 641.855469 522.566406 C 642.144531 522.972656 642.449219 523.363281 642.777344 523.742188 C 643.101562 524.117188 643.445312 524.476562 643.808594 524.820312 C 644.171875 525.160156 644.550781 525.484375 644.945312 525.789062 C 645.339844 526.089844 645.75 526.375 646.171875 526.636719 C 646.597656 526.898438 647.03125 527.140625 647.480469 527.359375 C 647.925781 527.578125 648.386719 527.773438 648.851562 527.945312 C 649.320312 528.117188 649.796875 528.269531 650.277344 528.390625 C 650.761719 528.515625 651.246094 528.617188 651.738281 528.691406 C 652.234375 528.769531 652.726562 528.820312 653.226562 528.84375 C 653.722656 528.871094 654.222656 528.871094 654.71875 528.847656 C 655.214844 528.824219 655.710938 528.773438 656.203125 528.699219 C 656.695312 528.625 657.183594 528.527344 657.667969 528.402344 C 658.152344 528.277344 658.625 528.132812 659.09375 527.960938 C 659.5625 527.789062 660.019531 527.59375 660.46875 527.378906 C 660.917969 527.160156 661.351562 526.921875 661.777344 526.660156 C 662.203125 526.398438 662.613281 526.117188 663.007812 525.8125 C 663.402344 525.511719 663.78125 525.1875 664.144531 524.847656 C 664.507812 524.507812 664.855469 524.148438 665.183594 523.773438 C 665.507812 523.398438 665.816406 523.003906 666.105469 522.597656 C 714.164062 460.09375 742.828125 381.761719 742.828125 296.886719 C 742.828125 196.699219 702.910156 105.652344 638.261719 38.9375 C 636.886719 37.476562 635.28125 36.34375 633.445312 35.535156 C 631.609375 34.726562 629.691406 34.304688 627.683594 34.273438 Z M 115.761719 34.304688 C 113.839844 34.390625 112.003906 34.835938 110.253906 35.636719 C 108.503906 36.4375 106.96875 37.539062 105.648438 38.9375 C 41 105.652344 1.078125 196.699219 1.078125 296.886719 C 1.078125 381.761719 29.742188 460.09375 77.804688 522.597656 C 78.09375 523.003906 78.398438 523.398438 78.726562 523.773438 C 79.054688 524.148438 79.398438 524.507812 79.761719 524.847656 C 80.125 525.1875 80.503906 525.511719 80.902344 525.8125 C 81.296875 526.117188 81.707031 526.398438 82.132812 526.660156 C 82.554688 526.921875 82.992188 527.160156 83.441406 527.378906 C 83.886719 527.59375 84.347656 527.789062 84.816406 527.960938 C 85.28125 528.132812 85.757812 528.28125 86.242188 528.402344 C 86.722656 528.527344 87.210938 528.625 87.703125 528.699219 C 88.195312 528.773438 88.691406 528.824219 89.191406 528.847656 C 89.6875 528.871094 90.183594 528.871094 90.683594 528.84375 C 91.179688 528.820312 91.675781 528.769531 92.167969 528.691406 C 92.660156 528.617188 93.148438 528.515625 93.632812 528.394531 C 94.113281 528.269531 94.589844 528.117188 95.054688 527.945312 C 95.523438 527.773438 95.980469 527.578125 96.429688 527.359375 C 96.875 527.140625 97.3125 526.898438 97.734375 526.636719 C 98.160156 526.375 98.570312 526.09375 98.964844 525.789062 C 99.359375 525.484375 99.738281 525.160156 100.097656 524.820312 C 100.460938 524.476562 100.804688 524.117188 101.132812 523.742188 C 101.457031 523.363281 101.765625 522.972656 102.050781 522.566406 C 102.339844 522.15625 102.605469 521.738281 102.847656 521.300781 C 103.09375 520.867188 103.3125 520.421875 103.511719 519.964844 C 103.714844 519.507812 103.890625 519.042969 104.042969 518.570312 C 104.195312 518.09375 104.320312 517.613281 104.425781 517.128906 C 104.53125 516.640625 104.609375 516.148438 104.664062 515.652344 C 104.71875 515.160156 104.746094 514.660156 104.75 514.164062 C 104.757812 513.664062 104.734375 513.167969 104.691406 512.671875 C 104.644531 512.175781 104.574219 511.683594 104.476562 511.195312 C 104.382812 510.707031 104.261719 510.222656 104.121094 509.746094 C 103.976562 509.269531 103.808594 508.800781 103.617188 508.339844 C 103.425781 507.878906 103.210938 507.429688 102.976562 506.992188 C 102.738281 506.554688 102.480469 506.128906 102.199219 505.714844 C 101.921875 505.304688 101.621094 504.90625 101.300781 504.523438 C 57.058594 446.984375 30.75 375.097656 30.75 296.886719 C 30.75 204.570312 67.425781 121.015625 126.945312 59.589844 C 127.46875 59.066406 127.953125 58.503906 128.390625 57.902344 C 128.832031 57.304688 129.226562 56.675781 129.570312 56.019531 C 129.917969 55.359375 130.210938 54.679688 130.453125 53.980469 C 130.699219 53.277344 130.886719 52.5625 131.023438 51.828125 C 131.160156 51.097656 131.238281 50.363281 131.265625 49.621094 C 131.289062 48.878906 131.257812 48.136719 131.171875 47.398438 C 131.085938 46.660156 130.945312 45.933594 130.75 45.21875 C 130.554688 44.5 130.304688 43.800781 130.007812 43.121094 C 129.707031 42.441406 129.355469 41.789062 128.957031 41.164062 C 128.558594 40.535156 128.113281 39.941406 127.625 39.382812 C 127.140625 38.820312 126.613281 38.300781 126.046875 37.820312 C 125.480469 37.335938 124.878906 36.902344 124.246094 36.511719 C 123.617188 36.117188 122.957031 35.777344 122.273438 35.484375 C 121.589844 35.191406 120.890625 34.953125 120.171875 34.765625 C 119.453125 34.578125 118.722656 34.445312 117.984375 34.367188 C 117.242188 34.292969 116.503906 34.269531 115.761719 34.304688 Z M 357.121094 118.914062 C 348.929688 118.914062 342.285156 125.558594 342.285156 133.746094 L 342.285156 326.550781 C 342.285156 334.738281 348.929688 341.382812 357.121094 341.382812 L 386.789062 341.382812 C 394.976562 341.382812 401.625 334.738281 401.625 326.550781 L 401.625 133.746094 C 401.625 125.558594 394.976562 118.914062 386.789062 118.914062 Z M 357.121094 400.707031 C 348.929688 400.707031 342.285156 407.351562 342.285156 415.535156 L 342.285156 445.199219 C 342.285156 453.386719 348.929688 460.03125 357.121094 460.03125 L 386.789062 460.03125 C 394.976562 460.03125 401.625 453.386719 401.625 445.199219 L 401.625 415.535156 C 401.625 407.351562 394.976562 400.707031 386.789062 400.707031 Z M 357.121094 400.707031 " fill-opacity="1" fill-rule="nonzero"/></g></g></g></g></svg>